<svg xmlns="http://www.w3.org/2000/svg" viewBox="0 0 1280 640" width="1280" height="640">
  <defs>
    <radialGradient id="glowC" cx="0%" cy="0%" r="70%">
      <stop offset="0%" stop-color="#06b6d4" stop-opacity="0.35"/><stop offset="50%" stop-color="#06b6d4" stop-opacity="0"/>
    </radialGradient>
    <radialGradient id="glowA" cx="100%" cy="100%" r="70%">
      <stop offset="0%" stop-color="#22c55e" stop-opacity="0.35"/><stop offset="50%" stop-color="#22c55e" stop-opacity="0"/>
    </radialGradient>
    <linearGradient id="title" x1="0" y1="0" x2="1" y2="1">
      <stop offset="0%" stop-color="#06b6d4"/><stop offset="100%" stop-color="#22c55e"/>
    </linearGradient>
    <linearGradient id="leftFade" x1="0" y1="0" x2="1" y2="0">
      <stop offset="60%" stop-color="#0a0a0a"/><stop offset="100%" stop-color="#0a0a0a" stop-opacity="0"/>
    </linearGradient>
    <pattern id="grid" width="40" height="40" patternUnits="userSpaceOnUse">
      <path d="M40 0H0V40" fill="none" stroke="#ffffff" stroke-opacity="0.04" stroke-width="1"/>
    </pattern>
  </defs>

  <rect width="1280" height="640" fill="#0a0a0a"/>
  <rect width="1280" height="640" fill="url(#grid)"/>
  <rect width="1280" height="640" fill="url(#glowC)"/>
  <rect width="1280" height="640" fill="url(#glowA)"/>
  <rect x="0" y="0" width="620" height="640" fill="url(#leftFade)"/>

  <!-- left panel (native) -->
  <path d="M62.40 180L52.03 180L52.03 128.23L93.43 128.23Q96.31 128.23 98.65 129.64Q100.99 131.04 102.43 133.42Q103.87 135.79 103.87 138.60L103.87 152.28Q103.87 155.09 102.43 157.43Q100.99 159.77 98.65 161.17Q96.31 162.58 93.43 162.58L62.40 162.65L62.40 180M62.83 152.14L92.93 152.14Q93.14 152.14 93.25 152.03Q93.36 151.92 93.36 151.78L93.36 139.03Q93.36 138.82 93.25 138.71Q93.14 138.60 92.93 138.60L62.83 138.60Q62.62 138.60 62.51 138.71Q62.40 138.82 62.40 139.03L62.40 151.78Q62.40 151.92 62.51 152.03Q62.62 152.14 62.83 152.14M118.92 180Q116.18 180 113.84 178.60Q111.50 177.19 110.14 174.89Q108.77 172.58 108.77 169.85L108.77 138.24L118.99 138.24L118.99 169.34Q118.99 169.49 119.14 169.63Q119.28 169.78 119.42 169.78L140.45 169.78Q140.59 169.78 140.74 169.63Q140.88 169.49 140.88 169.34L140.88 138.24L151.10 138.24L151.10 169.85Q151.10 172.58 149.74 174.89Q148.37 177.19 146.06 178.60Q143.76 180 140.95 180L118.92 180M168.89 180Q166.15 180 163.85 178.60Q161.54 177.19 160.14 174.89Q158.74 172.58 158.74 169.85L158.74 124.49L169.03 124.49L169.03 169.34Q169.03 169.49 169.18 169.63Q169.32 169.78 169.46 169.78L177.67 169.78L177.67 180L168.89 180M192.50 180Q189.77 180 187.46 178.60Q185.16 177.19 183.76 174.89Q182.35 172.58 182.35 169.85L182.35 167.98L192.58 167.98L192.58 169.34Q192.58 169.49 192.72 169.63Q192.86 169.78 193.01 169.78L214.03 169.78Q214.18 169.78 214.32 169.63Q214.46 169.49 214.46 169.34L214.46 164.66Q214.46 164.52 214.32 164.41Q214.18 164.30 214.03 164.30L192.50 164.30Q189.77 164.30 187.46 162.90Q185.16 161.50 183.76 159.19Q182.35 156.89 182.35 154.08L182.35 148.39Q182.35 145.66 183.76 143.35Q185.16 141.05 187.46 139.64Q189.77 138.24 192.50 138.24L214.54 138.24Q217.34 138.24 219.65 139.64Q221.95 141.05 223.36 143.35Q224.76 145.66 224.76 148.39L224.76 150.26L214.46 150.26L214.46 148.90Q214.46 148.75 214.32 148.61Q214.18 148.46 214.03 148.46L193.01 148.46Q192.86 148.46 192.72 148.61Q192.58 148.75 192.58 148.90L192.58 153.58Q192.58 153.72 192.72 153.83Q192.86 153.94 193.01 153.94L214.54 153.94Q217.34 153.94 219.65 155.34Q221.95 156.74 223.36 159.05Q224.76 161.35 224.76 164.16L224.76 169.85Q224.76 172.58 223.36 174.89Q221.95 177.19 219.65 178.60Q217.34 180 214.54 180L192.50 180M240.67 180Q237.94 180 235.63 178.60Q233.33 177.19 231.92 174.89Q230.52 172.58 230.52 169.85L230.52 148.39Q230.52 145.66 231.92 143.35Q233.33 141.05 235.63 139.64Q237.94 138.24 240.67 138.24L262.70 138.24Q265.51 138.24 267.82 139.64Q270.12 141.05 271.49 143.35Q272.86 145.66 272.86 148.39L272.86 164.30L240.74 164.30L240.74 169.34Q240.74 169.49 240.89 169.63Q241.03 169.78 241.18 169.78L272.86 169.78L272.86 180L240.67 180M240.74 148.90L240.74 155.16L262.63 155.16L262.63 148.90Q262.63 148.75 262.49 148.61Q262.34 148.46 262.20 148.46L241.18 148.46Q241.03 148.46 240.89 148.61Q240.74 148.75 240.74 148.90" fill="url(#title)"/>

  <text x="48" y="238" font-family="ui-sans-serif,-apple-system,'Segoe UI',Roboto,Helvetica,Arial,sans-serif" font-size="22" font-weight="500" letter-spacing="0" fill="#94A3B8">Offline MedPsy voice health companion with</text>
  <text x="48" y="268" font-family="ui-sans-serif,-apple-system,'Segoe UI',Roboto,Helvetica,Arial,sans-serif" font-size="22" font-weight="500" letter-spacing="0" fill="#94A3B8">cited triage and drug checks.</text>

  <text x="48" y="322" font-family="ui-monospace,SFMono-Regular,Menlo,Consolas,'Liberation Mono',monospace" font-size="16" fill="#F8FAFC"><tspan fill="#22c55e">→ </tspan>Voice intake via Whisper STT</text>
  <text x="48" y="352" font-family="ui-monospace,SFMono-Regular,Menlo,Consolas,'Liberation Mono',monospace" font-size="16" fill="#F8FAFC"><tspan fill="#22c55e">→ </tspan>MedPsy-1.7B conservative triage</text>
  <text x="48" y="382" font-family="ui-monospace,SFMono-Regular,Menlo,Consolas,'Liberation Mono',monospace" font-size="16" fill="#F8FAFC"><tspan fill="#22c55e">→ </tspan>Drug-interaction warnings</text>
  <text x="48" y="412" font-family="ui-monospace,SFMono-Regular,Menlo,Consolas,'Liberation Mono',monospace" font-size="16" fill="#F8FAFC"><tspan fill="#22c55e">→ </tspan>Citations on ≥95% of claims</text>
  <text x="48" y="442" font-family="ui-monospace,SFMono-Regular,Menlo,Consolas,'Liberation Mono',monospace" font-size="16" fill="#F8FAFC"><tspan fill="#22c55e">→ </tspan>Spoken response via Piper TTS</text>

  <rect x="48" y="486" width="109" height="26" rx="13" fill="rgba(255,255,255,0.04)" stroke="rgba(255,255,255,0.08)"/><text x="103" y="503" font-family="ui-monospace,SFMono-Regular,Menlo,Consolas,'Liberation Mono',monospace" font-size="12" fill="#94A3B8" text-anchor="middle">License: MIT</text>
  <rect x="165" y="486" width="194" height="26" rx="13" fill="rgba(255,255,255,0.04)" stroke="rgba(255,255,255,0.08)"/><text x="262" y="503" font-family="ui-monospace,SFMono-Regular,Menlo,Consolas,'Liberation Mono',monospace" font-size="12" fill="#94A3B8" text-anchor="middle">Built for QVAC Hackathon</text>
  <rect x="367" y="486" width="70" height="26" rx="13" fill="rgba(255,255,255,0.04)" stroke="rgba(255,255,255,0.08)"/><text x="402" y="503" font-family="ui-monospace,SFMono-Regular,Menlo,Consolas,'Liberation Mono',monospace" font-size="12" fill="#94A3B8" text-anchor="middle">Expo 56</text>
  <rect x="445" y="486" width="105" height="26" rx="13" fill="rgba(255,255,255,0.04)" stroke="rgba(255,255,255,0.08)"/><text x="497" y="503" font-family="ui-monospace,SFMono-Regular,Menlo,Consolas,'Liberation Mono',monospace" font-size="12" fill="#94A3B8" text-anchor="middle">React Native</text>

  <g transform="translate(512, 0)">
    <!-- Connections -->
    <line x1="130" y1="270" x2="200" y2="235" stroke="rgba(6,182,212,0.15)" stroke-width="1.5" stroke-dasharray="4 4"/>
    <line x1="130" y1="285" x2="200" y2="325" stroke="rgba(245,158,11,0.15)" stroke-width="1.5" stroke-dasharray="4 4"/>
    <line x1="300" y1="235" x2="380" y2="260" stroke="rgba(6,182,212,0.12)" stroke-width="1.5" stroke-dasharray="4 4"/>
    <line x1="300" y1="325" x2="380" y2="280" stroke="rgba(245,158,11,0.12)" stroke-width="1.5" stroke-dasharray="4 4"/>
    <line x1="500" y1="255" x2="580" y2="197" stroke="rgba(239,68,68,0.12)" stroke-width="1.5" stroke-dasharray="4 4"/>
    <line x1="500" y1="265" x2="580" y2="252" stroke="rgba(245,158,11,0.12)" stroke-width="1.5" stroke-dasharray="4 4"/>
    <line x1="500" y1="275" x2="580" y2="307" stroke="rgba(34,197,94,0.12)" stroke-width="1.5" stroke-dasharray="4 4"/>
    <line x1="500" y1="290" x2="580" y2="365" stroke="rgba(6,182,212,0.08)" stroke-width="1.5" stroke-dasharray="4 4"/>

    <!-- Animated particle (main) -->
    <circle r="4" fill="#22c55e">
      <animateMotion dur="3.5s" repeatCount="indefinite">
        <mpath href="#p_pulse"/>
      </animateMotion>
    </circle>
    <path id="p_pulse" d="M 85 280 L 250 235 L 440 270 L 630 252" fill="none" stroke="none"/>

    <!-- Animated dots (middle layer) -->
    <circle r="3" fill="#06b6d4">
      <animateMotion dur="2s" repeatCount="indefinite" calcMode="spline" keyPoints="0;1" keyTimes="0;1" keySplines="0.4 0 0.2 1" path="M 130 270 L 200 235" />
    </circle>
    <circle r="3" fill="#f59e0b">
      <animateMotion dur="2.2s" repeatCount="indefinite" calcMode="spline" keyPoints="0;1" keyTimes="0;1" keySplines="0.4 0 0.2 1" path="M 130 285 L 200 325" />
    </circle>
    <circle r="3" fill="#06b6d4">
      <animateMotion dur="2.4s" repeatCount="indefinite" calcMode="spline" keyPoints="0;1" keyTimes="0;1" keySplines="0.4 0 0.2 1" path="M 300 235 L 380 260" />
    </circle>
    <circle r="3" fill="#f59e0b">
      <animateMotion dur="2.6s" repeatCount="indefinite" calcMode="spline" keyPoints="0;1" keyTimes="0;1" keySplines="0.4 0 0.2 1" path="M 300 325 L 380 280" />
    </circle>
    <circle r="3" fill="#ef4444">
      <animateMotion dur="1.8s" repeatCount="indefinite" calcMode="spline" keyPoints="0;1" keyTimes="0;1" keySplines="0.4 0 0.2 1" path="M 500 255 L 580 197" />
    </circle>
    <circle r="3" fill="#f59e0b">
      <animateMotion dur="2.1s" repeatCount="indefinite" calcMode="spline" keyPoints="0;1" keyTimes="0;1" keySplines="0.4 0 0.2 1" path="M 500 265 L 580 252" />
    </circle>
    <circle r="3" fill="#22c55e">
      <animateMotion dur="2.4s" repeatCount="indefinite" calcMode="spline" keyPoints="0;1" keyTimes="0;1" keySplines="0.4 0 0.2 1" path="M 500 275 L 580 307" />
    </circle>
    <circle r="3" fill="#06b6d4">
      <animateMotion dur="2.7s" repeatCount="indefinite" calcMode="spline" keyPoints="0;1" keyTimes="0;1" keySplines="0.4 0 0.2 1" path="M 500 290 L 580 365" />
    </circle>

    <!-- Nodes -->
    <!-- Voice -->
    <rect x="40" y="250" width="90" height="60" rx="10" fill="#0a0a0a" stroke="#06b6d4" stroke-width="1.5"/>
    <text x="85" y="278" font-family="JetBrains Mono, ui-monospace, SFMono-Regular, Menlo, Consolas, 'Liberation Mono', monospace" font-size="11px" fill="#06b6d4" text-anchor="middle">🎤 Voice</text>
    <text x="85" y="295" font-family="JetBrains Mono, ui-monospace, SFMono-Regular, Menlo, Consolas, 'Liberation Mono', monospace" font-size="9px" fill="#475569" text-anchor="middle">Whisper</text>

    <!-- RAG -->
    <rect x="200" y="210" width="100" height="50" rx="10" fill="#0a0a0a" stroke="#06b6d4" stroke-width="1.5"/>
    <text x="250" y="238" font-family="JetBrains Mono, ui-monospace, SFMono-Regular, Menlo, Consolas, 'Liberation Mono', monospace" font-size="10px" fill="#06b6d4" text-anchor="middle">Medical RAG</text>

    <!-- Drug check -->
    <rect x="200" y="300" width="100" height="50" rx="10" fill="#0a0a0a" stroke="#f59e0b" stroke-width="1.5"/>
    <text x="250" y="328" font-family="JetBrains Mono, ui-monospace, SFMono-Regular, Menlo, Consolas, 'Liberation Mono', monospace" font-size="10px" fill="#f59e0b" text-anchor="middle">Drug Check</text>

    <!-- MedPsy -->
    <rect x="380" y="240" width="120" height="60" rx="14" fill="#0a0a0a" stroke="#22c55e" stroke-width="2"/>
    <text x="440" y="268" font-family="JetBrains Mono, ui-monospace, SFMono-Regular, Menlo, Consolas, 'Liberation Mono', monospace" font-size="11px" fill="#22c55e" text-anchor="middle">MedPsy-1.7B</text>
    <text x="440" y="286" font-family="JetBrains Mono, ui-monospace, SFMono-Regular, Menlo, Consolas, 'Liberation Mono', monospace" font-size="9px" fill="#475569" text-anchor="middle">Triage</text>

    <!-- Triage outputs -->
    <rect x="580" y="180" width="100" height="35" rx="8" fill="#0a0a0a" stroke="#ef4444" stroke-width="1.5"/>
    <text x="630" y="202" font-family="JetBrains Mono, ui-monospace, SFMono-Regular, Menlo, Consolas, 'Liberation Mono', monospace" font-size="10px" fill="#ef4444" text-anchor="middle">Emergency</text>

    <rect x="580" y="235" width="100" height="35" rx="8" fill="#0a0a0a" stroke="#f59e0b" stroke-width="1.5"/>
    <text x="630" y="257" font-family="JetBrains Mono, ui-monospace, SFMono-Regular, Menlo, Consolas, 'Liberation Mono', monospace" font-size="10px" fill="#f59e0b" text-anchor="middle">Urgent</text>

    <rect x="580" y="290" width="100" height="35" rx="8" fill="#0a0a0a" stroke="#22c55e" stroke-width="1.5"/>
    <text x="630" y="312" font-family="JetBrains Mono, ui-monospace, SFMono-Regular, Menlo, Consolas, 'Liberation Mono', monospace" font-size="10px" fill="#22c55e" text-anchor="middle">Routine</text>

    <!-- TTS -->
    <rect x="580" y="350" width="100" height="35" rx="8" fill="#0a0a0a" stroke="#06b6d4" stroke-width="1.5"/>
    <text x="630" y="372" font-family="JetBrains Mono, ui-monospace, SFMono-Regular, Menlo, Consolas, 'Liberation Mono', monospace" font-size="10px" fill="#06b6d4" text-anchor="middle">🔊 Piper</text>

    <!-- Citation markers -->
    <text x="545" y="210" font-family="JetBrains Mono, ui-monospace, SFMono-Regular, Menlo, Consolas, 'Liberation Mono', monospace" font-size="8px" fill="#06b6d4" opacity="0.5">[§7.2]</text>
    <text x="545" y="265" font-family="JetBrains Mono, ui-monospace, SFMono-Regular, Menlo, Consolas, 'Liberation Mono', monospace" font-size="8px" fill="#06b6d4" opacity="0.5">[§3.1]</text>

    <!-- Badges -->
    <rect x="40" y="440" width="85" height="22" rx="11" fill="rgba(6,182,212,0.06)" stroke="rgba(6,182,212,0.15)" stroke-width="1"/>
    <text x="82" y="455" font-family="JetBrains Mono, ui-monospace, SFMono-Regular, Menlo, Consolas, 'Liberation Mono', monospace" font-size="9px" fill="#06b6d4" text-anchor="middle">MedPsy</text>

    <rect x="140" y="440" width="85" height="22" rx="11" fill="rgba(245,158,11,0.06)" stroke="rgba(245,158,11,0.15)" stroke-width="1"/>
    <text x="182" y="455" font-family="JetBrains Mono, ui-monospace, SFMono-Regular, Menlo, Consolas, 'Liberation Mono', monospace" font-size="9px" fill="#f59e0b" text-anchor="middle">Whisper</text>

    <rect x="240" y="440" width="85" height="22" rx="11" fill="rgba(34,197,94,0.06)" stroke="rgba(34,197,94,0.15)" stroke-width="1"/>
    <text x="282" y="455" font-family="JetBrains Mono, ui-monospace, SFMono-Regular, Menlo, Consolas, 'Liberation Mono', monospace" font-size="9px" fill="#22c55e" text-anchor="middle">Offline</text>

    <!-- Disclaimer -->
    <text x="40" y="490" font-family="JetBrains Mono, ui-monospace, SFMono-Regular, Menlo, Consolas, 'Liberation Mono', monospace" font-size="8px" fill="#475569">Not a medical device — conservative support tool only</text>
  </g>
</svg>
